<svg xmlns="http://www.w3.org/2000/svg" xmlns:xlink="http://www.w3.org/1999/xlink" version="1.1" id="Layer_1" x="0px" y="0px" viewBox="0 198 800 176" enable-background="new 0 198 800 176" xml:space="preserve">
<g>
	<polygon fill="#FF7300" points="128.9,229.8 117.1,229.8 69.1,336.8 82.6,336.8  "/>
	<polygon fill="#FF7300" points="176.9,336 137.5,248.5 131.5,263.3 158,325 105.9,325 100.7,336  "/>
	<polygon opacity="7.000000e-002" fill="#FFFFFF" enable-background="new    " points="22,229 61.4,316.8 67.4,303.4 40.9,243    93,243 98.2,229  "/>
	<rect x="191.6" y="229.6" fill="#FFFFFF" width="12.3" height="107.8"/>
	<path fill="#FFFFFF" d="M261.1,258.4c-11.8,0-21.7,4.7-29.4,13v-12.6h-10.8v107.8h10.8v-41.2c6.2,8.1,16.7,12.7,27.9,12.7   c23.5,0,39.3-16.1,39.3-40C298.8,275.2,283.6,259.3,261.1,258.4z M287.1,298.2c0,21-14.2,28.5-27.5,28.5   c-15.7,0-27.2-11.9-27.2-28.3s11.4-28.3,27.2-28.3C279.9,270,287.1,284.5,287.1,298.2z"/>
	<path fill="#FFFFFF" d="M348.8,258.4c-9.8,0.1-18.6,3.6-23.2,9.8v-38.7h-12.3v107.8h12.3v-42.8c0-14.3,9.9-24.7,23.6-24.7   c17.5,0,21.1,12.5,21.1,22.9v44.5H381v-44.5C381,271.3,369.4,258.4,348.8,258.4z"/>
	<path fill="#FFFFFF" d="M459.6,270.3c-6.2-7.5-16-11.7-27.1-11.7c-22.4,0-39.1,17-39.1,39.6c0,22.7,16.6,39.9,39,39.9   c10.9,0,21-4.2,27.2-12v11.4h12.3v-78.5h-12.3V270.3z M460.9,298.2c0,7.4-2.5,14.3-7,19.4c-5.1,5.7-12.4,8.7-21.1,8.7   c-15.9,0-27.5-11.9-27.5-28.2c0-16.3,11.5-28.1,27.5-28.1C452.1,270.1,460.9,284.7,460.9,298.2z"/>
	<rect x="488.9" y="229.6" fill="#FFFFFF" width="12.3" height="107.8"/>
	<rect x="516.7" y="258.8" fill="#FFFFFF" width="12" height="78.5"/>
	<path fill="#FFFFFF" d="M657.5,258.3c-22.4,0-39.3,17.2-39.3,39.9c0,23.4,16.2,39.7,39.3,39.7c13.5,0,26.2-5.7,33.2-14.9l1.4-1.8   l-8.8-7l-1.4,1.9c-4.5,6-14.5,10-24.4,10c-11.9,0-24.5-7.1-27-22.5h65.1l0.2-1.9c1.3-13.1-1.7-24-8.7-31.6   C680.1,262.4,669.6,258.3,657.5,258.3z M684.5,292.7h-54.1c2.3-13.9,12.9-23.4,27-23.4C673.5,269.3,683.5,278.9,684.5,292.7z"/>
	<path fill="#FFFFFF" d="M743.1,292l-2.6-0.4c-10.4-1.8-19.1-3.9-19.3-10.9c-0.1-2.3,0.7-4.2,2.3-5.8c3.1-3.3,9.4-5.2,16.8-5.2   l0.6,0c7.9,0,14.5,1.2,21.2,7.1l1.7,1.5l7.5-8l-1.7-1.6c-7.3-6.9-17-10.4-28.7-10.4l-0.5,0c-10.6,0-19.7,3.1-25.1,8.5   c-3.8,3.8-5.7,8.6-5.6,14.1c0.2,16.8,16.8,19.6,30.2,21.9c12.9,2.1,22,4.1,21.8,12.1c-0.4,10.5-14.4,11.6-20.4,11.6   c-10.6,0-19.8-4.3-24.8-11.4l-1.5-2.1l-8.7,7.8l1.1,1.7c6.4,9.8,19,15.6,33.8,15.6c29.3,0,32.1-17.3,32.2-22.5   C774.2,297.3,756.2,294.2,743.1,292z"/>
	<polygon fill="#FFFFFF" points="601.7,258.8 577.4,321.4 551.7,258.8 538.7,258.8 571.2,337.4 582.2,337.4 584,337.4 614.6,258.8     "/>
	<polyline fill="#FFFFFF" points="528.7,229.6 516.7,229.6 516.7,240.3 528.7,240.3 528.7,229.6  "/>
</g>
<head xmlns=""/></svg>