<svg class="logoLight" id="logo" width="24" height="24" alt="logo Alphalives" style="position:unset" xmlns="http://www.w3.org/2000/svg" viewBox="0 194 800 196.7" xml:space="preserve"><path opacity=".07" fill="#333" d="m26.1 230 39.5 87.8 6-13.5L45.1 244h52.1l5.1-14z"></path><g class="logoBlackLetter" fill="#fff"><path d="M532.8 230.5h-11.9v10.7h11.9v-10.7M605.9 259.7l-24.3 62.6-25.7-62.6h-13l32.5 78.6h12.8l30.6-78.6zM747.3 292.9l-2.6-.4c-10.4-1.8-19.1-3.9-19.3-10.9-.1-2.3.7-4.2 2.3-5.8 3.2-3.3 9.4-5.2 16.8-5.2h.6c7.9 0 14.5 1.2 21.2 7.1l1.7 1.5 7.5-8-1.7-1.6c-7.3-6.9-17-10.4-28.7-10.4h-.5c-10.6 0-19.7 3.1-25.1 8.5-3.8 3.8-5.7 8.6-5.6 14.1.2 16.8 16.8 19.6 30.2 21.9 12.9 2.1 22 4.1 21.8 12.1-.4 10.5-14.4 11.6-20.4 11.6-10.6 0-19.8-4.3-24.8-11.4l-1.5-2.1-8.7 7.8 1.1 1.7c6.4 9.8 19 15.6 33.8 15.6 29.3 0 32.1-17.3 32.2-22.6.8-18.3-17.2-21.3-30.3-23.5zM661.6 259.1c-22.4 0-39.3 17.2-39.3 39.9 0 23.4 16.2 39.7 39.3 39.7 13.5 0 26.2-5.7 33.2-14.9l1.4-1.8-8.8-7-1.4 2c-4.5 6-14.5 10-24.4 10-11.9 0-24.5-7.1-27-22.5h65.1l.2-1.9c1.3-13.1-1.7-24-8.7-31.6-6.9-7.8-17.4-11.9-29.6-11.9zm27.1 34.5h-54.1c2.3-13.9 12.9-23.4 27-23.4 16.1 0 26.1 9.6 27.1 23.4zM520.9 259.7h12v78.5h-12zM493 230.5h12.3v107.8H493zM463.8 271.2c-6.2-7.5-16-11.7-27.1-11.7-22.4 0-39.1 17-39.1 39.6 0 22.7 16.6 39.9 39 39.9 10.9 0 21-4.2 27.2-12v11.4h12.3v-78.5h-12.3v11.3zm1.3 27.9c0 7.4-2.5 14.3-7 19.4-5.1 5.7-12.4 8.7-21.1 8.7-15.9 0-27.5-11.9-27.5-28.2 0-16.3 11.5-28.1 27.5-28.1 19.3.1 28.1 14.7 28.1 28.2zM353 259.3c-9.8.1-18.6 3.6-23.2 9.8v-38.7h-12.3v107.8h12.3v-42.8c0-14.3 9.9-24.7 23.6-24.7 17.5 0 21.1 12.5 21.1 22.9v44.5h10.8v-44.5c-.1-21.4-11.7-34.3-32.3-34.3zM265.2 259.3c-11.8 0-21.7 4.7-29.4 13v-12.6H225v107.8h10.8v-41.2c6.2 8.1 16.7 12.7 27.9 12.7 23.5 0 39.3-16.1 39.3-40 0-22.9-15.2-38.9-37.8-39.7zm26.1 39.7c0 21-14.2 28.5-27.5 28.5-15.7 0-27.2-11.9-27.2-28.3s11.4-28.3 27.2-28.3c20.2-.1 27.5 14.5 27.5 28.1zM195.8 230.5h12.3v107.8h-12.3z"></path></g><g class="aLogoOrange" fill="#FF7300"><path d="m181.1 337-39.4-87.5-6 14.8 26.4 61.7h-52l-5.2 11zM133.1 230.7h-11.9l-47.9 107h13.5z"></path></g></svg>
